<svg id="Calque_1" data-name="Calque 1" xmlns="http://www.w3.org/2000/svg" viewBox="0 0 64 64"><defs><style>.cls-1{fill:#0065fc;}.cls-2{fill:#fff;}</style></defs><path class="cls-1" d="M52,64H12A12,12,0,0,1,0,52V12A12,12,0,0,1,12,0H52A12,12,0,0,1,64,12V52A12,12,0,0,1,52,64Z"/><path class="cls-2" d="M24.9,34.74V18.39c-2.25,1.17-3.08,3-2.33,5.26a6.09,6.09,0,0,1-2.76-1.75,3,3,0,0,1-.91-2.67,5.52,5.52,0,0,1,1.91-3A12.28,12.28,0,0,1,25,14v-.09A2.89,2.89,0,0,1,27.4,12c1.17-.16,1.75,0,1.75.59l-.08.67a27.5,27.5,0,0,1,5.25.16,19.41,19.41,0,0,1,4.92,1.25,9.51,9.51,0,0,1,3.17,2,12.06,12.06,0,0,1,2,2.84,8.23,8.23,0,0,1,.42,4.92c-.75,3.92-3.5,6.84-8.09,8.5a7,7,0,0,1,4.42,2.84,7.75,7.75,0,0,1,1.17,5,9.44,9.44,0,0,1-3.67,7,12.71,12.71,0,0,1-8.76,2.59h-.58a5.64,5.64,0,0,1-2.08,1.17,7.69,7.69,0,0,1-2.09.41h-.83l.08-2.16a21.68,21.68,0,0,1-3.08-.92A3.27,3.27,0,0,1,21,47.66a2.94,2.94,0,0,1,.09-1.5,15.91,15.91,0,0,0,3.41.92C24.82,41.49,24.9,37.32,24.9,34.74ZM37.16,18.9a12.85,12.85,0,0,0-6.59-1.67,8,8,0,0,0-1.58.08c-.09,4.25-.17,7.67-.09,10.51s.09,4.33.17,4.67a14.64,14.64,0,0,0,7.42-2.92,7.54,7.54,0,0,0,3.42-6.17A5.09,5.09,0,0,0,37.16,18.9ZM29.07,34.74l.25,12.75A9.1,9.1,0,0,0,35,45.83a6.4,6.4,0,0,0,2.75-5c.17-2.16-.42-3.75-1.92-4.75a9.88,9.88,0,0,0-2.75-1.42h-4Z"/></svg>